<?xml version="1.0" encoding="utf-8"?>
<!-- Generator: Adobe Illustrator 25.3.1, SVG Export Plug-In . SVG Version: 6.00 Build 0)  -->
<svg version="1.1" id="Layer_1" xmlns="http://www.w3.org/2000/svg" xmlns:xlink="http://www.w3.org/1999/xlink" x="0px" y="0px"
	 viewBox="0 0 1440 792" style="enable-background:new 0 0 1440 792;" xml:space="preserve">
<style type="text/css">
	.st0{fill:none;stroke:#FF0000;stroke-miterlimit:10;}
	.st1{fill:#0000FF;}
	.st2{fill:#FFFFFF;stroke:#000000;stroke-miterlimit:10;}
</style>
<rect x="36" y="22.5" class="st0" width="1368" height="747"/>
<circle class="st0" cx="1386" cy="751.5" r="6.97"/>
<circle class="st0" cx="1386" cy="40.5" r="6.97"/>
<circle class="st0" cx="54" cy="751.5" r="6.97"/>
<circle class="st0" cx="54" cy="40.5" r="6.97"/>
<g>
	<circle class="st1" cx="117.65" cy="609.3" r="9.94"/>
	<circle class="st1" cx="117.65" cy="449.1" r="9.94"/>
	<circle class="st1" cx="117.65" cy="288.9" r="9.94"/>
	<circle class="st1" cx="117.65" cy="128.67" r="9.94"/>
</g>
<g>
	<circle class="st1" cx="330.26" cy="609.3" r="9.94"/>
	<circle class="st1" cx="330.26" cy="449.1" r="9.94"/>
	<circle class="st1" cx="330.26" cy="288.9" r="9.94"/>
	<circle class="st1" cx="330.26" cy="128.67" r="9.94"/>
</g>
<g>
	<circle class="st1" cx="542.88" cy="609.3" r="9.94"/>
	<circle class="st1" cx="542.88" cy="449.1" r="9.94"/>
	<circle class="st1" cx="542.88" cy="288.9" r="9.94"/>
	<circle class="st1" cx="542.88" cy="128.67" r="9.94"/>
</g>
<g>
	<circle class="st1" cx="755.5" cy="609.3" r="9.94"/>
	<circle class="st1" cx="755.5" cy="449.1" r="9.94"/>
	<circle class="st1" cx="755.5" cy="288.9" r="9.94"/>
	<circle class="st1" cx="755.5" cy="128.67" r="9.94"/>
</g>
<g>
	<circle class="st1" cx="968.11" cy="609.3" r="9.94"/>
	<circle class="st1" cx="968.11" cy="449.1" r="9.94"/>
	<circle class="st1" cx="968.11" cy="288.9" r="9.94"/>
	<circle class="st1" cx="968.11" cy="128.67" r="9.94"/>
</g>
<g>
	<circle class="st1" cx="1180.73" cy="609.3" r="9.94"/>
	<circle class="st1" cx="1180.73" cy="449.1" r="9.94"/>
	<circle class="st1" cx="1180.73" cy="288.9" r="9.94"/>
	<circle class="st1" cx="1180.73" cy="128.67" r="9.94"/>
</g>
<g>
	<circle class="st1" cx="259.42" cy="694.33" r="9.94"/>
	<circle class="st1" cx="259.42" cy="534.13" r="9.94"/>
	<circle class="st1" cx="259.42" cy="373.93" r="9.94"/>
	<circle class="st1" cx="259.42" cy="213.7" r="9.94"/>
</g>
<g>
	<circle class="st1" cx="472.03" cy="694.33" r="9.94"/>
	<circle class="st1" cx="472.03" cy="534.13" r="9.94"/>
	<circle class="st1" cx="472.03" cy="373.93" r="9.94"/>
	<circle class="st1" cx="472.03" cy="213.7" r="9.94"/>
</g>
<g>
	<circle class="st1" cx="684.65" cy="694.33" r="9.94"/>
	<circle class="st1" cx="684.65" cy="534.13" r="9.94"/>
	<circle class="st1" cx="684.65" cy="373.93" r="9.94"/>
	<circle class="st1" cx="684.65" cy="213.7" r="9.94"/>
</g>
<g>
	<circle class="st1" cx="897.26" cy="694.33" r="9.94"/>
	<circle class="st1" cx="897.26" cy="534.13" r="9.94"/>
	<circle class="st1" cx="897.26" cy="373.93" r="9.94"/>
	<circle class="st1" cx="897.26" cy="213.7" r="9.94"/>
</g>
<g>
	<circle class="st1" cx="1109.88" cy="694.33" r="9.94"/>
	<circle class="st1" cx="1109.88" cy="534.13" r="9.94"/>
	<circle class="st1" cx="1109.88" cy="373.93" r="9.94"/>
	<circle class="st1" cx="1109.88" cy="213.7" r="9.94"/>
</g>
<g>
	<circle class="st1" cx="1322.5" cy="694.33" r="9.94"/>
	<circle class="st1" cx="1322.5" cy="534.13" r="9.94"/>
	<circle class="st1" cx="1322.5" cy="373.93" r="9.94"/>
	<circle class="st1" cx="1322.5" cy="213.7" r="9.94"/>
</g>
<g>
	<path class="st2" d="M206.91,743.5v-13.6h-54v36h54v-19.07C206.7,745.72,206.68,744.61,206.91,743.5z"/>
	<path class="st2" d="M154.28,765.9c-9.94,0-18-8.06-18-18c0-9.94,8.06-18,18-18"/>
	<path class="st2" d="M205.72,729.9c9.94,0,18,8.06,18,18c0,9.94-8.06,18-18,18"/>
</g>
<g>
	<path class="st1" d="M422.91,743.5v-13.6h-54v36h54v-19.07C422.7,745.72,422.68,744.61,422.91,743.5z"/>
	<path class="st1" d="M370.28,765.9c-9.94,0-18-8.06-18-18c0-9.94,8.06-18,18-18"/>
	<path class="st1" d="M421.72,729.9c9.94,0,18,8.06,18,18c0,9.94-8.06,18-18,18"/>
</g>
<g>
	<path class="st1" d="M206.91,743.5v-13.6h-54v36h54v-19.07C206.7,745.72,206.68,744.61,206.91,743.5z"/>
	<path class="st1" d="M154.28,765.9c-9.94,0-18-8.06-18-18c0-9.94,8.06-18,18-18"/>
	<path class="st1" d="M205.72,729.9c9.94,0,18,8.06,18,18c0,9.94-8.06,18-18,18"/>
</g>
<g>
	<path class="st1" d="M638.91,743.5v-13.6h-54v36h54v-19.07C638.7,745.72,638.68,744.61,638.91,743.5z"/>
	<path class="st1" d="M586.28,765.9c-9.94,0-18-8.06-18-18c0-9.94,8.06-18,18-18"/>
	<path class="st1" d="M637.72,729.9c9.94,0,18,8.06,18,18c0,9.94-8.06,18-18,18"/>
</g>
<g>
	<path class="st1" d="M854.91,743.5v-13.6h-54v36h54v-19.07C854.7,745.72,854.68,744.61,854.91,743.5z"/>
	<path class="st1" d="M802.28,765.9c-9.94,0-18-8.06-18-18c0-9.94,8.06-18,18-18"/>
	<path class="st1" d="M853.72,729.9c9.94,0,18,8.06,18,18c0,9.94-8.06,18-18,18"/>
</g>
<g>
	<path class="st1" d="M1070.91,743.5v-13.6h-54v36h54v-19.07C1070.7,745.72,1070.68,744.61,1070.91,743.5z"/>
	<path class="st1" d="M1018.28,765.9c-9.94,0-18-8.06-18-18c0-9.94,8.06-18,18-18"/>
	<path class="st1" d="M1069.72,729.9c9.94,0,18,8.06,18,18c0,9.94-8.06,18-18,18"/>
</g>
<g>
	<path class="st1" d="M1286.91,743.5v-13.6h-54v36h54v-19.07C1286.7,745.72,1286.68,744.61,1286.91,743.5z"/>
	<path class="st1" d="M1234.28,765.9c-9.94,0-18-8.06-18-18c0-9.94,8.06-18,18-18"/>
	<path class="st1" d="M1285.72,729.9c9.94,0,18,8.06,18,18c0,9.94-8.06,18-18,18"/>
</g>
<g>
	<path class="st1" d="M422.91,39.7V26.1h-54v36h54V43.03C422.7,41.92,422.68,40.81,422.91,39.7z"/>
	<path class="st1" d="M370.28,62.1c-9.94,0-18-8.06-18-18s8.06-18,18-18"/>
	<path class="st1" d="M421.72,26.1c9.94,0,18,8.06,18,18s-8.06,18-18,18"/>
</g>
<g>
	<path class="st1" d="M206.91,39.7V26.1h-54v36h54V43.03C206.7,41.92,206.68,40.81,206.91,39.7z"/>
	<path class="st1" d="M154.28,62.1c-9.94,0-18-8.06-18-18s8.06-18,18-18"/>
	<path class="st1" d="M205.72,26.1c9.94,0,18,8.06,18,18s-8.06,18-18,18"/>
</g>
<g>
	<path class="st1" d="M638.91,39.7V26.1h-54v36h54V43.03C638.7,41.92,638.68,40.81,638.91,39.7z"/>
	<path class="st1" d="M586.28,62.1c-9.94,0-18-8.06-18-18s8.06-18,18-18"/>
	<path class="st1" d="M637.72,26.1c9.94,0,18,8.06,18,18s-8.06,18-18,18"/>
</g>
<g>
	<path class="st1" d="M854.91,39.7V26.1h-54v36h54V43.03C854.7,41.92,854.68,40.81,854.91,39.7z"/>
	<path class="st1" d="M802.28,62.1c-9.94,0-18-8.06-18-18s8.06-18,18-18"/>
	<path class="st1" d="M853.72,26.1c9.94,0,18,8.06,18,18s-8.06,18-18,18"/>
</g>
<g>
	<path class="st1" d="M1070.91,39.7V26.1h-54v36h54V43.03C1070.7,41.92,1070.68,40.81,1070.91,39.7z"/>
	<path class="st1" d="M1018.28,62.1c-9.94,0-18-8.06-18-18s8.06-18,18-18"/>
	<path class="st1" d="M1069.72,26.1c9.94,0,18,8.06,18,18s-8.06,18-18,18"/>
</g>
<g>
	<path class="st1" d="M1286.91,39.7V26.1h-54v36h54V43.03C1286.7,41.92,1286.68,40.81,1286.91,39.7z"/>
	<path class="st1" d="M1234.28,62.1c-9.94,0-18-8.06-18-18s8.06-18,18-18"/>
	<path class="st1" d="M1285.72,26.1c9.94,0,18,8.06,18,18s-8.06,18-18,18"/>
</g>
</svg>
